<?xml version="1.0" encoding="UTF-8"?>
<svg version="1.1" xmlns="http://www.w3.org/2000/svg" width="600" height="600">
<path d="M0 0 C198 0 396 0 600 0 C600 198 600 396 600 600 C402 600 204 600 0 600 C0 402 0 204 0 0 Z " fill="#F2FEFC" transform="translate(0,0)"/>
<path d="M0 0 C2.6953125 2.34765625 2.6953125 2.34765625 4.6953125 5.34765625 C3.66792969 5.08210938 2.64054687 4.8165625 1.58203125 4.54296875 C0.18234187 4.18600099 -1.21740063 3.82924152 -2.6171875 3.47265625 C-3.28814453 3.29863281 -3.95910156 3.12460938 -4.65039062 2.9453125 C-15.36771768 0.22824367 -25.4746065 -1.01557009 -36.5546875 -0.96484375 C-37.83939941 -0.9592041 -39.12411133 -0.95356445 -40.44775391 -0.94775391 C-68.59904523 -0.58706883 -93.41047801 11.41707709 -113.3046875 31.34765625 C-117.40329489 35.98535975 -121.19612353 40.85249231 -124.89453125 45.8125 C-138.1704298 63.47120109 -154.78834251 74.30141885 -176.9375 77.9453125 C-180.79359189 78.40607522 -184.42760329 78.41567527 -188.3046875 78.34765625 C-185.74015827 75.7691132 -183.16427903 73.21260991 -180.54296875 70.69140625 C-168.80449159 59.34986315 -154.39276106 44.53100664 -153.3046875 27.34765625 C-154.90186329 24.16436748 -154.90186329 24.16436748 -158.3046875 22.34765625 C-166.31212035 20.76673452 -172.65048497 22.96611981 -179.3046875 27.34765625 C-198.52453326 41.0222804 -210.48026451 62.80066771 -216.3046875 85.34765625 C-216.60503906 86.50136719 -216.90539062 87.65507812 -217.21484375 88.84375 C-224.17540383 119.95583484 -216.42839609 148.23398049 -201.3046875 175.34765625 C-200.62775819 176.6758087 -199.95537144 178.00645058 -199.3046875 179.34765625 C-219.90796611 173.21902778 -236.08355643 155.54136732 -246.3046875 137.34765625 C-258.11438375 114.46145997 -260.61604145 86.17281428 -252.98925781 61.4765625 C-252.76334961 60.77402344 -252.53744141 60.07148438 -252.3046875 59.34765625 C-252.06331055 58.57808594 -251.82193359 57.80851562 -251.57324219 57.015625 C-241.9589768 27.07232803 -222.77833067 1.21124463 -195.3046875 -14.65234375 C-194.70591797 -15.00151855 -194.10714844 -15.35069336 -193.49023438 -15.71044922 C-177.81107299 -24.75461013 -161.08911178 -30.65958056 -143.36279297 -34.23046875 C-141.3571431 -34.64159129 -139.36601697 -35.09864624 -137.37109375 -35.55859375 C-89.09268219 -45.89152135 -37.84058466 -30.37367583 0 0 Z " fill="#63C2C5" transform="translate(406.3046875,174.65234375)"/>
<path d="M0 0 C0.66 0.33 1.32 0.66 2 1 C2.57836914 2.8984375 2.57836914 2.8984375 3.03515625 5.375 C3.20466797 6.27863281 3.37417969 7.18226563 3.54882812 8.11328125 C3.71833984 9.06589844 3.88785156 10.01851563 4.0625 11 C4.23587891 11.92167969 4.40925781 12.84335937 4.58789062 13.79296875 C12.21714242 55.24231376 3.40172865 99.65513478 -20.11328125 134.75 C-26.67242734 144.19837623 -33.92776412 152.81991862 -42 161 C-42.53657227 161.55848633 -43.07314453 162.11697266 -43.62597656 162.69238281 C-47.80766587 166.98766639 -52.22523375 170.75540125 -57 174.375 C-57.73911621 174.93590332 -58.47823242 175.49680664 -59.23974609 176.07470703 C-80.68878249 192.10301197 -104.81126966 201.79607941 -131 207 C-132.12664062 207.226875 -133.25328125 207.45375 -134.4140625 207.6875 C-152.95505176 210.75635339 -172.72088352 210.30205469 -191 206 C-192.41346891 205.70418068 -193.82755211 205.41128361 -195.2421875 205.12109375 C-232.76887881 197.17965512 -265.62568379 174.97284044 -289.5 145.25 C-290.21289185 144.37347778 -290.21289185 144.37347778 -290.94018555 143.47924805 C-292.21875 141.828125 -292.21875 141.828125 -294 139 C-293.67 138.01 -293.34 137.02 -293 136 C-292.12859375 136.51949219 -291.2571875 137.03898438 -290.359375 137.57421875 C-279.64732019 143.88059458 -268.96353304 148.58178013 -257.00390625 152.09765625 C-254.53943396 152.83795937 -252.15949698 153.66648282 -249.75 154.5625 C-218.48341175 164.77887174 -182.97740275 159.67254308 -154.078125 145.03515625 C-146.65566637 141.19951616 -139.41807593 137.1024787 -132.25 132.8125 C-119.5936379 125.24974664 -108.16870567 119.42030047 -93 121 C-86.80364477 123.07439309 -83.0532938 126.29166811 -80 132 C-80.70125 132.09796875 -81.4025 132.1959375 -82.125 132.296875 C-90.93775337 133.68584156 -98.23836531 135.79795664 -104 143 C-105.50789131 145.93668012 -106.80097934 148.9254163 -108 152 C-80.96799957 150.03136519 -57.62304782 141.13012612 -38.69140625 120.96484375 C-9.20554459 86.71221462 -1.11479309 44.05588376 0 0 Z " fill="#4AB0B6" transform="translate(459,259)"/>
<path d="M0 0 C3.81196205 2.21549931 6.27451085 4.94318328 8 9 C9.82104484 19.92626902 2.59228655 30.04826075 -3.1875 38.875 C-4.53443081 41.28074591 -5.07980762 42.49231086 -4.64640808 45.24934387 C-4.37919449 46.04209213 -4.1119809 46.83484039 -3.83666992 47.65161133 C-3.54504974 48.53128571 -3.25342957 49.41096008 -2.95297241 50.31729126 C-2.63849152 51.20258514 -2.32401062 52.08787903 -2 53 C-1.71702057 53.79900726 -1.43404114 54.59801453 -1.14248657 55.42123413 C-0.25785813 57.85557114 0.65472553 60.27784957 1.57421875 62.69921875 C2.24853703 64.50307205 2.92235047 66.30711414 3.59570312 68.11132812 C4.64398988 70.91094573 5.69569471 73.7090998 6.75610352 76.50415039 C7.78917484 79.23207829 8.80774369 81.96507095 9.82421875 84.69921875 C10.14291428 85.52854416 10.4616098 86.35786957 10.78996277 87.21232605 C13.3789453 94.23241294 13.50446044 99.84664865 11.6875 107.15234375 C11.41679687 108.25771484 11.14609375 109.36308594 10.8671875 110.50195312 C10.58101563 111.63568359 10.29484375 112.76941406 10 113.9375 C9.71382813 115.09830078 9.42765625 116.25910156 9.1328125 117.45507812 C8.42906533 120.30525417 7.71794201 123.15337266 7 126 C4.20346947 123.53430323 2.7445337 120.88480847 1.06640625 117.57421875 C0.5053418 116.477146 -0.05572266 115.38007324 -0.63378906 114.24975586 C-1.52662598 112.48643921 -1.52662598 112.48643921 -2.4375 110.6875 C-3.68770537 108.2428858 -4.94308609 105.80094792 -6.19921875 103.359375 C-6.51557281 102.74360092 -6.83192688 102.12782684 -7.15786743 101.49339294 C-10.27800821 95.43287648 -13.49186446 89.42494791 -16.75 83.4375 C-17.25072021 82.51090576 -17.75144043 81.58431152 -18.26733398 80.62963867 C-18.73083252 79.78119385 -19.19433105 78.93274902 -19.671875 78.05859375 C-20.0750293 77.31923584 -20.47818359 76.57987793 -20.89355469 75.81811523 C-21.99424218 73.84812939 -21.99424218 73.84812939 -24 72 C-24.59425781 73.0415625 -25.18851563 74.083125 -25.80078125 75.15625 C-37.09082553 94.75871912 -49.94105682 113.13992023 -65.59082031 129.5234375 C-66.54057241 130.51860393 -67.48514833 131.51873297 -68.42480469 132.5234375 C-87.21425621 152.57230385 -110.15671513 163.65301997 -137 169 C-138.29550781 169.28037109 -138.29550781 169.28037109 -139.6171875 169.56640625 C-153.02286537 171.28468598 -167.79615009 170.95916069 -181 168 C-181.96035156 167.81695312 -182.92070312 167.63390625 -183.91015625 167.4453125 C-203.44428771 163.27597219 -222.40638049 151.34677009 -235 136 C-235.69867188 135.22269531 -236.39734375 134.44539062 -237.1171875 133.64453125 C-250.66296136 118.15360301 -259.27615447 97.7869839 -259.0625 77.0625 C-259.05347656 75.91910156 -259.04445313 74.77570313 -259.03515625 73.59765625 C-259.02355469 72.74042969 -259.01195312 71.88320313 -259 71 C-258.34 71 -257.68 71 -257 71 C-256.6596875 71.99257813 -256.319375 72.98515625 -255.96875 74.0078125 C-247.14933641 99.03285977 -231.94367547 118.83997135 -208 131 C-184.67579109 141.86754349 -157.73561377 143.79495398 -133.41308594 135.07226562 C-94.85614316 120.44097183 -70.86863997 91.97809257 -51 57 C-51.97533691 56.98018066 -52.95067383 56.96036133 -53.95556641 56.93994141 C-72.37184715 56.55372046 -90.68013359 56.07813463 -109 54 C-107.69083193 52.40776856 -106.36847823 50.82560245 -105.00537109 49.27929688 C-103.53511388 47.60820832 -102.10599794 45.90068325 -100.70166016 44.17382812 C-94.74550283 37.40450153 -89.7174054 34.54262514 -80.56518555 33.76367188 C-79.16848251 33.67537727 -77.77175337 33.58749472 -76.375 33.5 C-74.9211611 33.37040032 -73.46778013 33.23556515 -72.01489258 33.09570312 C-69.08739706 32.81985361 -66.15961274 32.5681301 -63.22802734 32.33984375 C-57.03394728 31.85307911 -50.86182994 31.18962204 -44.6875 30.5 C-43.65737793 30.40525391 -42.62725586 30.31050781 -41.56591797 30.21289062 C-40.14690186 30.06110352 -40.14690186 30.06110352 -38.69921875 29.90625 C-37.88283936 29.82697266 -37.06645996 29.74769531 -36.2253418 29.66601562 C-31.63735394 28.29289101 -29.48791222 24.45761235 -27.30078125 20.4453125 C-26.81287109 19.58292969 -26.32496094 18.72054687 -25.82226562 17.83203125 C-24.82369163 16.04157387 -23.83648495 14.24472453 -22.86132812 12.44140625 C-17.89071303 3.74444998 -10.6438146 -3.8413767 0 0 Z " fill="#3EA7AE" transform="translate(394,230)"/>
<path d="M0 0 C0.99 0.495 0.99 0.495 2 1 C2.57836914 2.8984375 2.57836914 2.8984375 3.03515625 5.375 C3.20466797 6.27863281 3.37417969 7.18226563 3.54882812 8.11328125 C3.71833984 9.06589844 3.88785156 10.01851563 4.0625 11 C4.23587891 11.92167969 4.40925781 12.84335937 4.58789062 13.79296875 C12.21053568 55.20641967 3.16275933 97.92467503 -19.1171875 133.4921875 C-21 136 -21 136 -24 137 C-25.14019898 138.1056475 -26.27460751 139.21775534 -27.3828125 140.35546875 C-43.15165852 156.39093777 -63.51148808 167.0774961 -86.25 167.4375 C-87.08974365 167.45981689 -87.9294873 167.48213379 -88.79467773 167.50512695 C-95.50496564 167.48059572 -100.96494615 165.83924392 -105.9375 161.1875 C-107.38401708 158.20937659 -107.57912398 155.2646329 -108 152 C-106.8140625 151.91363281 -105.628125 151.82726562 -104.40625 151.73828125 C-76.48523673 149.43378182 -53.03856362 137.83503113 -34.71484375 116.31640625 C-7.76443862 83.47093014 -1.04335583 41.23273078 0 0 Z " fill="#66C3C6" transform="translate(459,259)"/>
<path d="M0 0 C2 3.75 2 3.75 2 6 C1.34 6 0.68 6 0 6 C0 8.97 0 11.94 0 15 C-0.33 15 -0.66 15 -1 15 C-1.02715383 13.25008666 -1.04646551 11.50005055 -1.0625 9.75 C-1.07410156 8.77546875 -1.08570313 7.8009375 -1.09765625 6.796875 C-1.01195577 4.34241322 -0.70706066 2.33831086 0 0 Z " fill="#B1E8E7" transform="translate(135,295)"/>
</svg>
